# xmcd
#
# Track frame offsets: 
#        150
#        38220
#        47617
#        72502
#        83705
#        124257
#        150790
#        176925
#        198120
#        213557
#
# Disc length: 3366 seconds
#
# Revision: 5
# Processed by: cddbd v1.5.2PL0 Copyright (c) Steve Scherf et al.
# Submitted via: ExactAudioCopy v1.0b1
#
DISCID=850d240a
DTITLE=Betty Carter - Finally
DYEAR=1969
DGENRE=Jazz
TTITLE0=Seems Like Old Times | I Remember You | You Forgot To Remember
TTITLE1=Blue Moon
TTITLE2=The Sun Died
TTITLE3=I Only Have Eyes For You
TTITLE4=Body And Soul | Heart And Soul
TTITLE5=I Didn't Know What Time It Was | All The Things You Are | I Co
TTITLE5=uld Write A Book
TTITLE6=Girl Talk
TTITLE7=You're A Sweetheart
TTITLE8=Ego
TTITLE9=All Through The Day
EXTD=
EXTT0=
EXTT1=
EXTT2=
EXTT3=
EXTT4=
EXTT5=
EXTT6=
EXTT7=
EXTT8=
EXTT9=
PLAYORDER=
